<?xml version="1.0" encoding="utf-8"?>
<!-- Generator: Adobe Illustrator 28.1.0, SVG Export Plug-In . SVG Version: 6.00 Build 0)  -->
<svg version="1.1" xmlns="http://www.w3.org/2000/svg" xmlns:xlink="http://www.w3.org/1999/xlink" x="0px" y="0px"
	 viewBox="0 0 487 197" style="enable-background:new 0 0 487 197;" xml:space="preserve">
<style type="text/css">
	.st0{fill:#0D3350;}
	.st1{fill:#0E324D;}
	.st2{fill:#0B304C;}
	.st3{fill:#0B324F;}
	.st4{fill:#0A314D;}
	.st5{fill:#1B374E;}
	.st6{fill:#0C304B;}
	.st7{fill:#153249;}
	.st8{fill:#4BA5E6;}
	.st9{fill:#203C52;}
	.st10{fill:#EFF5F8;}
	.st11{fill:#D7E4ED;}
	.st12{fill:#E9F1F4;}
	.st13{fill:#3CB3FC;}
	.st14{fill:#0B3352;}
	.st15{fill:#092E49;}
	.st16{fill:#ABDEF9;}
	.st17{fill:#8BCDF9;}
	.st18{fill:#78C4F5;}
	.st19{fill:#0C314D;}
	.st20{fill:#F3F9FB;}
	.st21{fill:#69BDF7;}
	.st22{fill:#ACE0FA;}
	.st23{fill:#5AAEEE;}
	.st24{fill:#BBE2F6;}
	.st25{fill:#EDF4F7;}
	.st26{fill:#11324B;}
	.st27{fill:#143751;}
</style>
<g id="레이어_1">
	<path class="st0" d="M345.41,117.24c-2.66-3.53-5.09-6.79-7.55-10.03c-0.74-0.98-1.19-2.07-2.82-2.3
		c-4.73-0.66-5.69,0.03-5.69,4.85c0,2.12-0.02,4.23,0.01,6.35c0.06,4.1-1.83,6.68-6.01,6.67c-4.17-0.01-5.41-3.12-5.53-6.67
		c-0.15-4.72-0.06-9.44-0.08-14.16c-0.02-6.67-0.16-13.35-0.04-20.02c0.11-5.94,2.47-8.18,8.42-8.25
		c5.86-0.07,11.72-0.11,17.58,0.02c7.65,0.17,13.15,4.54,14.94,11.64c1.79,7.1-0.56,13.12-7.37,16.87
		c-2.92,1.61-1.87,2.39-0.45,4.07c2.19,2.61,4.17,5.4,6.21,8.14c1.94,2.6,2.07,5.22-0.62,7.3c-2.54,1.97-5.23,1.48-7.55-0.56
		C347.65,120.09,346.7,118.73,345.41,117.24z"/>
	<path class="st1" d="M459.51,111.19c3.4,0.05,6.28-0.28,8.73-2.21c0.9-0.71,2.02-1.49,1.79-2.72c-0.28-1.52-1.8-1.06-2.84-1.13
		c-1.95-0.13-3.92,0.03-5.86-0.15c-3.27-0.29-5.07-2.28-5.05-5.48c0.03-3.24,2.13-4.47,5.21-4.45c5.05,0.03,10.1,0.12,15.15-0.06
		c4.45-0.16,6.13,2.1,6.33,6.18c0.73,14.28-13.57,24.97-28.67,21.41c-13.37-3.15-21.13-16.36-17.71-30.15
		c3.56-14.33,16.42-22.29,30.03-18.59c2.57,0.7,4.79,1.98,6.67,3.88c2.4,2.44,2.15,5.02,0.19,7.44c-1.84,2.27-4.03,2.79-6.89,1.25
		c-7.16-3.86-13.36-2.33-17.34,3.98c-3.94,6.24-2.62,14.08,3.04,18.39C454.31,110.35,456.59,111.05,459.51,111.19z"/>
	<path class="st2" d="M391.63,95.15c0.06-5.36,0.08-10.24,0.17-15.12c0.06-2.98,1.1-5.53,4.14-6.52c3.12-1.02,4.85,1.23,6.34,3.39
		c4.44,6.41,8.78,12.9,13.2,19.33c0.49,0.71,0.65,1.92,2.41,1.78c0-4.92,0-9.86,0-14.81c0-1.46-0.07-2.93,0.04-4.39
		c0.25-3.47,2.27-5.54,5.63-5.5c3.3,0.04,4.87,2.38,4.87,5.57c-0.03,12.85,0,25.71-0.27,38.56c-0.1,4.69-4.03,6.45-7.88,3.74
		c-1.55-1.09-2.84-2.66-4-4.2c-4.66-6.2-9.23-12.47-14.71-19.89c0,7.24,0,13.14,0,19.03c0,2.98-0.63,5.59-4.05,6.31
		c-3.45,0.73-5.94-1.49-6.02-5.8C391.39,109.62,391.58,102.62,391.63,95.15z"/>
	<path class="st3" d="M284.59,110.83c7.61,1.99,12.33-1.32,12.53-8.59c0.18-6.67,0.1-13.34,0.17-20.01
		c0.02-1.45,0.05-2.94,0.34-4.35c0.61-2.91,2.45-4.62,5.49-4.49c3.1,0.13,4.88,2.14,4.9,5.06c0.04,9.75,0.45,19.56-0.48,29.24
		c-0.92,9.58-9.76,15.67-20.08,15.2c-9.9-0.44-18.11-7.64-18.64-17.22c-0.49-8.76-0.24-17.56-0.07-26.34c0.07-3.51,2.29-6.05,5.8-6
		c3.74,0.06,5.08,2.91,5.06,6.46c-0.05,7.16,0.09,14.32-0.11,21.47C279.36,105.38,280.63,108.55,284.59,110.83z"/>
	<path class="st4" d="M251.03,87.69c0.05,9.57,0.12,18.68,0.15,27.79c0.02,4.95-1.92,7.63-5.59,7.38c-4.64-0.31-5.67-3.44-5.61-7.53
		c0.12-8.95-0.08-17.9,0.13-26.85c0.08-3.22-0.83-4.48-4.1-3.99c-1.59,0.24-3.25,0.02-4.88,0.06c-3.71,0.09-5.29-2.21-5.61-5.43
		c-0.32-3.25,1.55-5.72,4.61-5.84c9.91-0.39,19.84-0.49,29.75-0.29c2.81,0.06,4.53,2.57,4.66,5.46c0.15,3.14-1.49,5.4-4.59,6.01
		c-2.03,0.4-4.24,0.38-6.3,0.08C251.22,84.19,250.86,85.32,251.03,87.69z"/>
	<path class="st5" d="M331.65,141.66c-0.67-1.87-1.08-3.29,1.28-3.52c1.56-0.15,2.49,0.49,2.81,2c0.36,1.68,0.68,3.37,1.02,5.09
		c0.51-0.19,0.86-0.2,0.99-0.38c1.27-1.75,0.15-5.53,2.94-5.49c3.5,0.05,2.08,4.62,4.71,6.91c0.66-2.21,1.41-4.17,1.81-6.21
		c0.28-1.4,0.8-2.03,2.23-1.81c1.51,0.24,1.82,1.17,1.46,2.48c-1.23,4.38-2.47,8.76-3.72,13.13c-0.28,0.99-0.75,1.8-1.95,1.86
		c-1.42,0.06-1.99-0.78-2.31-2.01c-0.33-1.24-0.78-2.45-1.19-3.73c-0.4,0.27-0.67,0.4-0.86,0.6c-1.38,1.46,0.26,5.02-2.72,5
		c-2.82-0.02-2.78-3.23-3.59-5.21C333.45,147.66,332.71,144.81,331.65,141.66z"/>
	<path class="st6" d="M384.09,80.01c-0.32,5.27-2.86,8.47-6.98,8.77c-4.11,0.3-7.43-1.18-8.85-5.35c-1.22-3.57,0.95-8.06,4.51-9.85
		C377.1,71.41,381.33,73.67,384.09,80.01z"/>
	<path class="st7" d="M364.25,141.08c0.16-1.67-0.74-3.58,1.7-3.6c1.91-0.02,1.81,1.48,1.84,2.77c0.07,4.05,0.14,8.11,0.17,12.16
		c0.01,1.34-0.2,2.69-1.69,3.19c-1.59,0.53-2.3-0.68-3.06-1.77c-1.46-2.09-2.94-4.15-5.26-7.41c0,3.18,0.01,4.99,0,6.79
		c-0.01,1.11,0.25,2.37-1.47,2.51c-1.56,0.13-2.56-0.46-2.59-2.1c-0.08-4.54-0.09-9.08-0.13-13.62c-0.01-0.87,0.2-1.59,1.23-1.73
		c1.39-0.19,2.5,0.13,3.34,1.39c1.67,2.48,3.44,4.9,5.92,8.4C364.26,144.89,364.26,143.17,364.25,141.08z"/>
	<path class="st5" d="M453.56,141.5c-0.37-4.67,2.66-4.09,5.21-4.07c8.8,0.04,11.12,3.66,7,11.17c-0.93,1.69,0.27,2.34,0.77,3.4
		c0.52,1.12,1.81,2.31,0.32,3.4c-1.59,1.15-3.06,0.38-4.21-1.02c-1.18-1.43-1.5-3.6-3.54-4.29c-0.32,0.26-0.6,0.4-0.75,0.64
		c-1.01,1.5,1.75,4.93-2.04,4.8c-3.28-0.11-2.6-3.09-2.64-5.29C453.63,147.48,453.61,144.71,453.56,141.5z"/>
	<path class="st5" d="M441.27,137.57c8.6,0.59,12.34,7.55,8.15,14.54c-1.76,2.95-4.55,4.14-7.91,3.81c-3.46-0.34-5.5-2.47-6.64-5.66
		c-1.42-3.97-0.42-7.42,2.32-10.36C438.13,138.88,439.65,138.39,441.27,137.57z"/>
	<path class="st7" d="M411.13,154.76c-7.84,2.57-11.77-0.12-11.86-7.69c-0.02-1.79-0.09-3.58,0.03-5.35
		c0.11-1.56-0.92-3.92,2.18-3.79c2.6,0.11,1.94,2.09,1.98,3.59c0.06,2.27,0.07,4.55,0,6.82c-0.07,2.22,1.04,3.43,3.14,3.43
		c1.99,0,3.42-1.05,3.47-3.25c0.06-2.59-0.01-5.19-0.01-7.79c0-1.35,0.08-2.73,1.88-2.83c2.04-0.12,1.91,1.42,1.74,2.68
		C413.04,145.24,415.35,150.4,411.13,154.76z"/>
	<path class="st7" d="M318.24,154.32c-2.02-1.17-2.65-2.82-3.17-4.55c-1.46-4.82,0.64-10.07,4.61-11.49
		c3.95-1.41,8.07,0.54,9.92,4.69c2,4.49,0.28,10.17-3.69,12.37C323.24,156.81,320.9,155.75,318.24,154.32z"/>
	<path class="st5" d="M298.77,139.12c2.9,2.54,3.45,5.76,1.21,7.94c-2.29,2.22-1.95,3.38-0.2,5.31c0.67,0.74,1.87,1.83,0.66,2.91
		c-1.42,1.27-2.34-0.13-3.16-1.06c-0.75-0.85-1.34-1.83-2.01-2.75c-0.57-0.77-1.09-1.76-2.26-1.42c-1.27,0.37-0.87,1.56-0.92,2.46
		c-0.07,1.27,0.24,2.99-1.6,2.92c-2.23-0.09-1.5-2.08-1.54-3.41c-0.07-2.11-0.01-4.22,0-6.33
		C288.96,136.77,289.48,136.4,298.77,139.12z"/>
	<path class="st8" d="M383.72,109.72c-0.05,2.88,0.18,5.42-0.34,7.82c-0.81,3.77-3.86,5.23-7.97,4.89
		c-4.07-0.33-5.37-2.62-5.35-6.06c0.02-5.56-0.21-11.12-0.34-16.68c-0.14-5.6,1.59-7.6,6.66-7.69c5.34-0.09,6.97,1.57,7.09,7.22
		C383.54,102.59,383.6,105.95,383.72,109.72z"/>
	<path class="st5" d="M262.92,155.31c-4.42,1.11-7.42-0.45-9.17-4.08c-1.85-3.84-1.44-7.65,1.32-10.95c2.26-2.71,6.9-2.98,9.77-0.81
		c3.42,2.58,4.38,9.22,1.7,12.85C265.7,153.45,264.37,154.22,262.92,155.31z"/>
	<path class="st9" d="M421.4,142.12c-1.56-0.13-2.71-0.09-3.83-0.22c-1.17-0.13-1.57-0.98-1.59-2.07c-0.02-1.18,0.61-1.95,1.7-1.95
		c4.7-0.01,9.4,0.03,14.09,0.19c1.04,0.04,1.69,1.02,1.69,2.08c0,1.47-1.09,2.05-2.31,1.8c-4.25-0.84-4.41,1.61-4.12,4.73
		c0.18,1.94-0.03,3.9,0.05,5.85c0.07,1.73-0.41,2.91-2.36,2.85c-2.05-0.06-2.13-1.48-2.12-3.07
		C422.61,148.94,422.89,145.52,421.4,142.12z"/>
	<path class="st9" d="M275.3,151.01c5.2,1.79,6.19,1.15,6.28-3.63c0.04-2.26,0.14-4.53-0.07-6.77c-0.12-1.3-0.12-2.39,1.31-2.58
		c1.52-0.2,1.84,0.95,1.81,2.23c-0.08,3.24-0.08,6.48-0.22,9.72c-0.17,3.77-2.6,5.43-6,5.76c-3.57,0.36-6.26-1.43-6.81-4.84
		c-0.59-3.64-0.23-7.43-0.23-11.16c0-1.05,0.51-2.02,1.64-2.05c1.66-0.05,1.55,1.27,1.52,2.41
		C274.45,143.64,273.77,147.2,275.3,151.01z"/>
	<path class="st9" d="M251.09,139.49c-0.97,2.05-1.72,3.92-2.95,5.4c-1.94,2.34-3.38,4.64-2.64,7.88c0.26,1.14,0.47,2.89-1.45,3.02
		c-1.94,0.14-1.93-1.52-1.77-2.77c0.61-4.93-3.4-7.46-5.51-10.99c-0.72-1.21-2.75-2.52-0.46-4.04c2.16-1.44,2.76,0.44,3.56,1.86
		c0.48,0.85,1.09,1.62,1.57,2.47c1.71,3.02,2.9,2.44,4.73-0.15C247.19,140.73,246.96,135.91,251.09,139.49z"/>
	<path class="st7" d="M381.67,142.11c-0.98-2.9-0.08-4.22,2.82-4.12c3.07,0.1,6.15-0.02,9.23,0.02c1.19,0.02,2.75-0.41,2.62,1.77
		c-0.09,1.58-0.73,2.53-2.36,2.28c-3.3-0.51-3.19,1.54-3.1,3.79c0.1,2.43,0.02,4.86,0.03,7.29c0.01,1.53-0.66,2.61-2.24,2.5
		c-1.4-0.09-1.66-1.28-1.65-2.51c0.02-1.94-0.27-3.93,0.03-5.82C387.74,143.06,386.15,141.47,381.67,142.11z"/>
	<path class="st10" d="M329.28,91.93c-0.01-1.58,0.1-2.73-0.07-3.84c-0.46-3.08,0.87-4.01,3.81-3.8c3.06,0.23,6.17-0.1,9.23,0.16
		c3.28,0.28,5.42,2.15,5.58,5.6c0.16,3.39-2.32,4.53-5.04,4.75c-3.54,0.29-7.12,0.21-10.67,0.1
		C330.7,94.85,329.16,94.43,329.28,91.93z"/>
	<path class="st11" d="M458.08,143.21c1.28-3.09,3.2-1.71,4.86-1.06c1.06,0.42,1.06,1.52,0.66,2.49c-0.65,1.57-2.02,1.94-3.54,1.99
		C457.76,146.7,458.12,145.01,458.08,143.21z"/>
	<path class="st12" d="M444.09,142.07c0.78,0.61,1.34,1,1.67,1.54c1.55,2.52,1.28,4.96-0.69,7.11c-1.07,1.16-2.46,1.55-3.96,0.65
		c-2.11-1.26-2.68-3.29-2.22-5.46C439.42,143.42,440.45,141.17,444.09,142.07z"/>
	<path class="st12" d="M321.7,151.65c-0.5-0.19-0.65-0.26-0.78-0.35c-2.44-1.77-3.02-4.07-1.75-6.76c0.76-1.6,2.07-2.56,3.91-1.96
		c2.03,0.66,3.19,2.17,3.22,4.34C326.35,149.76,324.92,151.41,321.7,151.65z"/>
	<path class="st12" d="M297.11,145.46c-2.09,0.48-4.38,2.44-5.32-0.75c-0.33-1.11-0.54-2.9,0.94-3.35c1.28-0.39,2.98-0.31,4.21,0.22
		C298.57,142.27,298.6,143.76,297.11,145.46z"/>
	<path class="st13" d="M372.31,113.61c0-5.52,0.05-10.63-0.02-15.73c-0.03-2.45,0.35-4.24,3.83-4.37c3.36-0.13,5.5,0.99,5.8,3.93
		c0.34,3.33,0.14,6.7,0.16,10.05c0.01,2.19-0.14,4.38,0.03,6.56c0.32,3.94-1.24,4.93-5.74,4.35
		C372.82,117.95,371.93,116.8,372.31,113.61z"/>
	<path class="st12" d="M264.05,150.11c-2.94,3.19-5.44,2.73-7.26-0.48c-1.82-3.21-0.72-6.21,2.23-7.93
		c2.75-1.61,4.58,0.42,5.54,2.88C265.21,146.25,264.97,148.08,264.05,150.11z"/>
</g>
<g id="레이어_2">
	<path class="st14" d="M186.26,91.39c2.22,1.55,4.73,0.83,6.9,1.59c13.79,4.85,20.72,21.89,14.61,36.53
		c-3.66,8.75-9.5,15.06-19.49,16.27c-1.72,0.21-2.66,0.82-3.21,2.63c-3.2,10.49-9.81,18.72-17.72,26.01
		c-2.01,1.85-2.92,3.46-1.93,6.32c0.94,2.7,1.47,5.66,1.02,8.64c-0.44,2.9-1.78,5.05-4.99,4.99c-3.05-0.06-4.15-2.09-4.31-4.93
		c-0.36-6.02-1.95-11.51-6.94-15.49c-9.53-7.59-21.56-3.29-24.13,8.67c-0.35,1.64-0.46,3.35-0.55,5.04
		c-0.34,6.53-2.12,7.65-8.81,5.08c-2.61-1.09-1.87-3.18-2.05-4.86c-0.19-1.82,0.16-3.7-0.34-5.49c-0.74-2.6-2.76-3.65-5.25-3.56
		c-2.56,0.1-4.25,1.45-4.69,4.17c-0.5,3.13,0.69,6.47-1.57,9.46c-7.61,3.06-9.9,1.63-10.1-6.04c-0.23-8.97-5.37-15.19-13.36-16.18
		c-7.34-0.91-14.12,4.42-16.17,12.81c-0.51,2.09-0.78,4.24-1.09,6.37c-0.43,2.96-1.84,5.1-5.05,4.85c-3.27-0.25-4.86-2.47-4.83-5.68
		c0.03-3.24,0.56-6.45,1.57-9.53c0.63-1.92,0.58-3.3-1.27-4.77c-8.31-6.58-13.69-15.31-17.71-24.97c-0.63-1.52-0.82-2.96-3.2-3.2
		c-15-1.49-23.84-17.82-21.7-31.46c1.9-12.07,8.2-20.46,20.98-22.5c2.79-0.44,2.68-2.74,3.32-4.42
		c6.82-17.91,18.14-32.02,35.15-41.7c1.79,0.45,3.31,0.32,4.81,0.05c4.59-0.83,4.59-0.85,3.95,4.49c-0.6,2.4-2.1,3.64-3.85,4.68
		c-6.88,4.09-12.72,9.39-18.15,15.65c-0.29,0.46-0.41,0.65-0.73,1.1c-0.46,0.62-0.74,0.98-1.21,1.6
		c-8.01,11.3-12.97,23.33-13.22,37.39c-0.59,1.9-0.65,3.52-0.59,5.49c0.03,0.82,0.03,1.29,0.02,2.1
		c-0.41,16.89,4.1,31.71,15.34,44.15c4.47,4.95,4.85,4.16,9.04,1.23c8.69-6.07,19.38-5.43,28.79,1.7c3.61,2.73,6.66,4.22,11.19,2.02
		c3.89-1.89,8.21-1.32,12.05,0.8c2.46,1.37,4.04,0.8,6.06-1.04c9.97-9.11,21.04-9.94,32.5-2.38c2.88,1.9,4.84,1.83,7.18-0.66
		c9.03-9.65,14.74-20.84,15.9-34.1c0.3-3.48,1.77-6.95,0.38-10.87c0.13-11.06-1.49-21.51-4.42-32.12c3.54-3.39,5.45-3.23,7.55,0.38
		C182.92,89.4,183.43,91.46,186.26,91.39z"/>
	<path class="st15" d="M77.6,52c-0.82-1.89-0.24-3.63,0.04-5.86c-2.7,1.06-5.24,2.81-7.88,0.18c10.27-6.82,21.63-10.3,33.73-11.58
		c1.22-0.13,3.05,0.66,3.13-1.61c0.07-2.25-1.87-1.62-3.04-1.84c-10.01-1.9-18.5-11.64-18.83-21.71C84.56,3.72,87,1.65,92.63,2.85
		c11.94,2.55,19.95,9.06,21.79,21.73c2.14,0.21,2.51-1.68,3.47-2.71c2.75-2.95,6-4.79,10.09-4.89c4.46-0.12,6.07,2.29,3.85,6.12
		c-3.06,5.28-7.7,8.22-13.9,8.56c-1.2,0.06-2.99-0.76-2.99,1.64c-0.01,2.2,1.73,1.81,2.96,1.97c13.22,1.72,25.38,6.17,36.57,14.07
		c0.68,0.55,1.22,0.61,1.94,0.89c2.94,3.3,7.34,4.61,9.09,8.8c-0.27,0.27-0.52,0.6-0.34,0.51c2.34-1.65,2.99,0.62,3.95,1.57
		c1.6,1.58,2.92,3.46,4.49,5.51c-0.48,1.52-1.97,1.26-3.11,2.29c1.58,0.82,3.28-0.25,4.93,0.61c1.38,1.64,2.46,3.23,3.66,5.13
		c0.02,0.52-0.08,0.74-0.47,1.15c-2.77,0.71-4.97,1.9-7.54,3.04c-3.77-0.58-4.6-3.81-6.67-6.26c-5.71-8.45-13.4-14.06-22.28-18.76
		c-6.1-3.44-12.33-5.51-18.8-6.99c-3.37-0.77-6.64-1.05-9.92,0.36c-1.74,0.75-3.74,1.12-5.36,0.13c-3.85-2.37-7.7-1.14-11.6-0.47
		C90.1,47.93,84.3,51.02,77.6,52z"/>
	<path class="st16" d="M102.9,192.6c-0.4-3.15-0.39-6.22-0.26-9.28c0.15-3.7,2.71-5.98,6.66-6.05c3.98-0.07,6.83,2.42,6.96,6.17
		c0.09,2.76,0.09,5.52,0.14,8.7C112.06,192.6,107.71,192.64,102.9,192.6z"/>
	<path class="st17" d="M133.07,187.22c2.57-5.36,5.55-7.22,9.61-6.27c3.82,0.89,6.49,4.69,6.51,8.89c0.01,2.66-0.98,4.02-3.74,3.95
		c-2.44-0.06-4.89,0-7.33-0.02C132.56,193.72,132.25,193.34,133.07,187.22z"/>
	<path class="st18" d="M69.83,190.97c0.05-2.41,0.7-4.27,1.72-6.01c2.26-3.87,6.11-5.32,9.72-3.69c3.34,1.51,5.84,6.62,4.97,10.07
		c-0.24,0.95-0.62,1.92-1.6,2.03c-4.56,0.54-9.13,0.72-13.66-0.18C70.5,193.09,70.22,191.98,69.83,190.97z"/>
	<path class="st15" d="M186.56,90.97c-2.69,3.18-4.27,2.31-5.03-1.23c-0.75-3.51-2.53-5.05-6.46-3.18
		c-2.61-0.37-3.16-2.05-3.27-4.33c1.74-2.53,4.29-3.92,5.86-6.63c0.43-0.33,0.64-0.43,1.21-0.59
		C182.51,79.78,184.44,85.25,186.56,90.97z"/>
	<path class="st14" d="M175.66,69.28c-1.23,0.65-2.52,1.17-3.86,1.35c-1.47,0.2-3.42,0.41-3.64-1.63c-0.2-1.84,1.56-1.88,2.95-1.96
		c0.61-0.03,1.21-0.05,2.23-0.11C174.35,67.6,174.96,68.3,175.66,69.28z"/>
	<path class="st19" d="M156.46,50.14c-0.36,0.1-0.88-0.06-1.55-0.44C155.27,49.61,155.79,49.75,156.46,50.14z"/>
	<path class="st20" d="M172.29,81.53c0.66,1.78,1.33,3.23,2.21,4.88c4.56,10.51,6.05,21.27,5.37,32.79
		c-1.98,20.14-22.26,39.29-42.2,39.68c-18.15,0.35-36.31,0.41-54.46-0.02c-16.97-0.41-29.41-8.85-37.65-23.51
		c-2.79-4.97-4.97-10.24-6-16.29c-0.08-0.76-0.1-1.13-0.09-1.79c0.23-1.89,0.08-3.5,0.17-5.45c0.17-14.74,5.3-27.39,13.81-39.12
		c0.59-0.32,0.89-0.52,1.12-1.06c-0.03-0.27,0.27-0.18,0.12-0.23c3.66-2.92,7.48-5.72,12.04-7.37c8.67-3.14,17.4-5.07,26.62-2.58
		c11.21,3.03,22.44,3.39,34.01-0.24c9.15-0.44,17.79-0.09,26.06,3.37c3.99,1.67,7.59,3.86,11.17,6.9c1.86,2.3,3.41,4.37,5.17,6.64
		C171.46,78.7,172.07,79.8,172.29,81.53z"/>
	<path class="st21" d="M39.36,119.1c2.6,2.31,2.91,6,4.21,9.22c7.71,19.18,22.25,29.3,43,29.4c15.23,0.08,30.48-0.36,45.7,0.1
		c23.09,0.71,37.22-12.74,44.82-31.7c0.8-1.99,1.46-4.04,2.45-6.28c1.73,5.49,0.33,11.09-0.77,16.59
		c-2.46,12.28-8.53,22.62-17.69,31.19c-1.67,1.57-2.7,1.62-4.57,0.05c-11.4-9.62-24.24-8.71-34.27,2.37
		c-1.39,1.53-2.14,1.97-4.03,0.64c-5.49-3.85-11.36-3.52-16.95-0.31c-2.08,1.2-3.09,0.89-4.62-0.65
		c-10.81-10.86-24.56-11.72-34.95-2c-1.91,1.79-2.62,0.15-3.66-0.82c-12.04-11.35-17.86-25.5-18.79-41.84
		C39.14,123.22,39.23,121.36,39.36,119.1z"/>
	<path class="st22" d="M128.27,62.19c-6.37,1.15-12.14,3.27-18.44,3.15c-6.84-0.13-13.34-2.01-19.95-3.13
		c-11.05-1.88-20.53,1.78-29.9,6.65c-1.61,0.84-2.84,2.37-5.1,2.57c5.59-8.18,13.37-14.12,22.16-19.33
		c8.54-3.94,17.15-6.71,26.28-7.7c0.9-0.1,2.36-0.54,2.62-0.16c3.04,4.32,5.74,2.55,9.27,0.38c1.65-1.01,4.8,0.04,7.16,0.62
		c6.94,1.7,13.77,3.74,20.19,7.65c2.32,5.5,0.61,8.33-4.8,8.6C134.71,61.64,131.61,61.02,128.27,62.19z"/>
	<path class="st8" d="M28.84,122.17c0.82,4.78,1.33,9.26,1.94,14.58c-6.73-3.26-9.68-8.26-11.07-14.79
		C22.74,119.8,25.67,119.6,28.84,122.17z"/>
	<path class="st23" d="M199.4,120.35c0.18,6.06-2.9,10.3-6.98,13.98c-0.78,0.7-1.78,1.5-2.88,0.97c-1.25-0.6-0.72-1.9-0.54-2.85
		c0.64-3.32,0.88-6.66,0.88-10.45C192.68,119.19,195.78,118.98,199.4,120.35z"/>
	<path class="st24" d="M20.62,112.68c0.76-5.6,4-8.68,9.63-10.9c-0.35,4.62-0.66,8.63-1.06,13.02
		C25.61,117.2,22.86,116.38,20.62,112.68z"/>
	<path class="st24" d="M190.27,113.55c-0.71-4.05-1.07-7.83-1.47-12c6.01,1.7,8.66,5.88,10.24,11.38
		C196.35,115.25,193.51,114.97,190.27,113.55z"/>
	<path class="st17" d="M189.84,113.69c2.84-0.41,5.61-0.41,8.78-0.42c1.45,2.1,1.38,4.35,1.17,6.98c-3.12,0.44-6.16,0.42-9.47,1.35
		C189.88,119.09,189.82,116.6,189.84,113.69z"/>
	<path class="st17" d="M20.26,112.59c2.49,1.63,4.89,3.12,8.44,2.58c0.45,2.17,0.5,4.34,0.51,6.9c-2.82-0.84-5.76-0.25-9.04-0.46
		C19.2,118.68,19.41,115.78,20.26,112.59z"/>
	<path class="st21" d="M39.51,111.77c0.76,1.31,0.45,2.96,0.17,4.91C39.46,115.35,39.41,113.71,39.51,111.77z"/>
	<path class="st22" d="M54.3,71.46c0.14,0.23,0.03,0.56-0.34,0.97C53.82,72.2,53.94,71.88,54.3,71.46z"/>
	<path class="st24" d="M128.37,62.44c-0.27-1.63,0.84-1.89,2.2-1.87c1.85,0.03,3.69,0.01,5.54,0c6-0.03,6.51-0.54,6.63-7.01
		c9.09,3.45,16.11,9.82,22.11,17.84c-2.85,0.77-4.2-1.86-6.29-2.98C149.21,63.43,139.3,61.55,128.37,62.44z"/>
	<path class="st11" d="M97.18,18.21c-1.05-1.78-2.79-2.88-2.45-5.44c4.98,1.87,8.9,4.47,11.11,9.77
		C101.94,22.83,99.69,20.6,97.18,18.21z"/>
	<path class="st14" d="M172.57,81.73c-0.99-0.86-1.69-1.85-2.5-3.12c2.52-0.71,3.98-3.94,7.43-3.24
		C178.05,78.92,175.37,80.19,172.57,81.73z"/>
	<path class="st14" d="M165.29,59.42c-0.35,0.54-0.75,1.07-1.18,1.57c-0.02,0.02-0.37-0.26-0.57-0.4c0.37-0.36,0.74-0.72,1.4-1.18
		C165.23,59.29,165.24,59.4,165.29,59.42z"/>
	<path class="st19" d="M136.26,69.61c20.06,0.85,35.76,17.38,37.03,38.4c0.65,10.84-1.61,20.77-8.35,29.51
		c-6.7,8.69-15.4,13.65-26.4,14.02c-19.85,0.67-39.73,0.72-59.57-0.13c-14.16-0.61-27.32-12.61-31.1-28.16
		C43.9,106.88,47.34,92.05,59.2,79.7c9.79-10.2,23.08-13.16,35.93-7.31c9.8,4.46,19.01,5.34,28.63-0.15
		C127.37,70.19,131.62,69.65,136.26,69.61z"/>
	<path class="st10" d="M91.05,114.25c-3.94,10.17-13.45,14.23-20.93,9.25c-6.25-4.16-8.17-10.75-5.19-17.8
		c2.59-6.12,8.87-9.46,15.43-8.22c6.35,1.2,10.91,7.03,11,14.12C91.37,112.37,91.2,113.14,91.05,114.25z"/>
	<path class="st10" d="M128.18,115.31c-1.77-10.13,4.52-18.14,13.68-18.05c6.91,0.07,12.04,4.36,13.34,11.51
		c1.2,6.56-2.8,13.69-8.96,15.97c-6.41,2.38-13.27-0.14-16.62-6.14C129.1,117.68,128.74,116.66,128.18,115.31z"/>
	<path class="st25" d="M103.79,125.32c2.87,5.12,8.03,5.29,10.85,0.55c1.03-1.72,1.83-3.53,4.07-2.36c2.3,1.2,2.5,3.52,1.44,5.61
		c-2.08,4.08-5.82,5.89-10.18,6.07c-4.5,0.18-8.62-1.16-11.08-5.27c-1.14-1.9-1.23-4.26,0.74-5.86
		C101.13,122.84,102.77,122.75,103.79,125.32z"/>
	<path class="st26" d="M74.78,121.4c-5.07-1.75-7.77-5.03-7.51-10.09c0.23-4.43,2.49-7.67,7.07-9.35c-0.11,3-0.74,5.76,0.81,8.28
		c1.33,2.19,3.04,3.77,5.71,4.17c1.35,0.2,3.49-0.91,3.81,1.34c0.28,2-1.35,3.31-2.91,4.35C79.75,121.44,77.5,121.74,74.78,121.4z"
		/>
	<path class="st27" d="M149.04,116.35c-2.2,4.55-5.71,6.21-10.05,4.89c-4.23-1.28-7.15-4.22-7.45-8.98
		c-0.32-5.07,2.34-8.69,7.92-10.72c-0.23,2.87-1.37,5.68,0.13,8.41c1.53,2.79,3.72,4.39,7,4.36
		C147.74,114.3,149.7,113.32,149.04,116.35z"/>
</g>
</svg>
